<svg width="1142" height="768" viewBox="0 0 1142 768" fill="none" xmlns="http://www.w3.org/2000/svg">
<g filter="url(#filter0_f_3_137)">
<circle opacity="0.3" cx="1030.72" cy="7" r="3" fill="white"/>
<circle opacity="0.3" cx="773.722" cy="420" r="3" fill="white"/>
<circle opacity="0.3" cx="1069.72" cy="511" r="3" fill="white"/>
<circle opacity="0.3" cx="978.722" cy="457" r="3" fill="white"/>
<circle opacity="0.3" cx="1134.72" cy="742" r="3" fill="white"/>
<circle opacity="0.3" cx="952.722" cy="605" r="3" fill="white"/>
<circle opacity="0.3" cx="382.722" cy="720" r="3" fill="white"/>
<circle opacity="0.3" cx="1075.72" cy="294" r="3" fill="white"/>
<circle opacity="0.3" cx="884.722" cy="673" r="3" fill="white"/>
<circle opacity="0.3" cx="908.722" cy="294" r="3" fill="white"/>
<circle opacity="0.3" cx="717.722" cy="673" r="3" fill="white"/>
<circle opacity="0.3" cx="928.722" cy="36" r="3" fill="white"/>
<circle opacity="0.3" cx="661.722" cy="552" r="3" fill="white"/>
<circle opacity="0.3" cx="954.722" cy="146" r="3" fill="white"/>
<circle opacity="0.3" cx="814.722" cy="580" r="3" fill="white"/>
<circle opacity="0.3" cx="1.5" cy="1.5" r="1.5" transform="matrix(-1.19249e-08 1 1 1.19249e-08 485.722 342)" fill="white"/>
<circle opacity="0.3" cx="1.5" cy="1.5" r="1.5" transform="matrix(-1.19249e-08 1 1 1.19249e-08 200.722 161)" fill="white"/>
<circle opacity="0.3" cx="2.90227" cy="2.90227" r="2.90227" transform="matrix(0.376454 0.926435 0.926435 -0.376454 3.1217 697.215)" fill="white"/>
<circle opacity="0.3" cx="1.5" cy="1.5" r="1.5" transform="matrix(-1.19249e-08 1 1 1.19249e-08 721.722 177)" fill="white"/>
<circle opacity="0.3" cx="1.5" cy="1.5" r="1.5" transform="matrix(-1.19249e-08 1 1 1.19249e-08 157.722 584)" fill="white"/>
<circle opacity="0.3" cx="2.90227" cy="2.90227" r="2.90227" transform="matrix(0.376454 0.926435 0.926435 -0.376454 270.918 389.99)" fill="white"/>
<ellipse opacity="0.3" cx="1.5" cy="1" rx="1.5" ry="1" transform="matrix(-1.19249e-08 1 1 1.19249e-08 798.722 307)" fill="white"/>
<ellipse opacity="0.3" cx="1.5" cy="1" rx="1.5" ry="1" transform="matrix(-1.19249e-08 1 1 1.19249e-08 234.722 714)" fill="white"/>
<ellipse opacity="0.3" cx="2.90227" cy="1.93485" rx="2.90227" ry="1.93485" transform="matrix(0.376454 0.926435 0.926435 -0.376454 503.631 566.932)" fill="white"/>
<circle opacity="0.3" cx="1.5" cy="1.5" r="1.5" transform="matrix(-1.19249e-08 1 1 1.19249e-08 826.722 212)" fill="white"/>
<circle opacity="0.3" cx="1.5" cy="1.5" r="1.5" transform="matrix(-1.19249e-08 1 1 1.19249e-08 170.722 297)" fill="white"/>
<circle opacity="0.3" cx="2.90227" cy="2.90227" r="2.90227" transform="matrix(0.376454 0.926435 0.926435 -0.376454 404.722 409.185)" fill="white"/>
<circle opacity="0.3" cx="1.5" cy="1.5" r="1.5" transform="matrix(-1.19249e-08 1 1 1.19249e-08 676.722 294)" fill="white"/>
<circle opacity="0.3" cx="1.5" cy="1.5" r="1.5" transform="matrix(-1.19249e-08 1 1 1.19249e-08 112.722 701)" fill="white"/>
<circle opacity="0.3" cx="2.90227" cy="2.90227" r="2.90227" transform="matrix(0.376454 0.926435 0.926435 -0.376454 275.475 632.491)" fill="white"/>
<circle opacity="0.3" cx="1.5" cy="1.5" r="1.5" transform="matrix(-1.19249e-08 1 1 1.19249e-08 999.722 354)" fill="white"/>
<circle opacity="0.3" cx="1.5" cy="1.5" r="1.5" transform="matrix(-1.19249e-08 1 1 1.19249e-08 435.722 761)" fill="white"/>
<circle opacity="0.3" cx="2.90227" cy="2.90227" r="2.90227" transform="matrix(0.376454 0.926435 0.926435 -0.376454 898.159 504.775)" fill="white"/>
<circle opacity="0.3" cx="1.5" cy="1.5" r="1.5" transform="matrix(-1.19249e-08 1 1 1.19249e-08 676.722 211)" fill="white"/>
<circle opacity="0.3" cx="1.5" cy="1.5" r="1.5" transform="matrix(-1.19249e-08 1 1 1.19249e-08 86.7222 415)" fill="white"/>
<circle opacity="0.3" cx="2.90227" cy="2.90227" r="2.90227" transform="matrix(0.376454 0.926435 0.926435 -0.376454 215.02 483.713)" fill="white"/>
<circle opacity="0.3" cx="1.5" cy="1.5" r="1.5" transform="matrix(-1.19249e-08 1 1 1.19249e-08 864.722 116)" fill="white"/>
<circle opacity="0.3" cx="1.5" cy="1.5" r="1.5" transform="matrix(-1.19249e-08 1 1 1.19249e-08 326.722 531)" fill="white"/>
<circle opacity="0.3" cx="2.90227" cy="2.90227" r="2.90227" transform="matrix(0.376454 0.926435 0.926435 -0.376454 482.816 176.489)" fill="white"/>
<circle opacity="0.3" cx="1.5" cy="1.5" r="1.5" transform="matrix(-1.19249e-08 1 1 1.19249e-08 586.722 208)" fill="white"/>
<circle opacity="0.3" cx="1.5" cy="1.5" r="1.5" transform="matrix(-1.19249e-08 1 1 1.19249e-08 22.7222 615)" fill="white"/>
<circle opacity="0.3" cx="2.90227" cy="2.90227" r="2.90227" transform="matrix(0.376454 0.926435 0.926435 -0.376454 24.7222 192.185)" fill="white"/>
<circle opacity="0.3" cx="1.5" cy="1.5" r="1.5" transform="matrix(-1.19249e-08 1 1 1.19249e-08 774.722 113)" fill="white"/>
<circle opacity="0.3" cx="1.5" cy="1.5" r="1.5" transform="matrix(-1.19249e-08 1 1 1.19249e-08 200.722 339)" fill="white"/>
<circle opacity="0.3" cx="2.90227" cy="2.90227" r="2.90227" transform="matrix(0.376454 0.926435 0.926435 -0.376454 319.304 236.666)" fill="white"/>
<circle opacity="0.3" cx="1.5" cy="1.5" r="1.5" transform="matrix(-1.19249e-08 1 1 1.19249e-08 629.722 259)" fill="white"/>
<circle opacity="0.3" cx="1.5" cy="1.5" r="1.5" transform="matrix(-1.19249e-08 1 1 1.19249e-08 10.7222 380)" fill="white"/>
<circle opacity="0.3" cx="2.90227" cy="2.90227" r="2.90227" transform="matrix(0.376454 0.926435 0.926435 -0.376454 165.734 603.987)" fill="white"/>
<circle opacity="0.3" cx="1.5" cy="1.5" r="1.5" transform="matrix(-1.19249e-08 1 1 1.19249e-08 1044.72 110)" fill="white"/>
<circle opacity="0.3" cx="1.5" cy="1.5" r="1.5" transform="matrix(-1.19249e-08 1 1 1.19249e-08 558.722 418)" fill="white"/>
<circle opacity="0.3" cx="2.90227" cy="2.90227" r="2.90227" transform="matrix(0.376454 0.926435 0.926435 -0.376454 801.098 34.6252)" fill="white"/>
</g>
<defs>
<filter id="filter0_f_3_137" x="0" y="0" width="1141.72" height="768" filterUnits="userSpaceOnUse" color-interpolation-filters="sRGB">
<feFlood flood-opacity="0" result="BackgroundImageFix"/>
<feBlend mode="normal" in="SourceGraphic" in2="BackgroundImageFix" result="shape"/>
<feGaussianBlur stdDeviation="2" result="effect1_foregroundBlur_3_137"/>
</filter>
</defs>
</svg>
